<svg version="1.1" id="Layer_1" xmlns="http://www.w3.org/2000/svg" xmlns:xlink="http://www.w3.org/1999/xlink" x="0px" y="0px"
	 width="1100px" height="1100px" viewBox="0 0 1024 1024" enable-background="new 0 0 1024 1024" xml:space="preserve">
<path fill="#FFFFFF" opacity="1.000000" stroke="none" 
	d="
M630.704346,406.308411 
	C603.129089,380.870117 575.759766,355.732758 548.562256,330.410767 
	C544.157715,326.309906 539.310120,325.509308 533.603271,325.111115 
	C524.825745,324.498627 518.668945,327.049408 512.392639,333.745880 
	C490.290863,357.327362 467.305603,380.080658 444.665863,403.158295 
	C443.267365,404.583893 441.817413,405.992798 440.634247,407.589417 
	C437.244812,412.163177 437.542694,416.810577 441.285339,420.135223 
	C445.082764,423.508545 448.816437,423.391754 453.169647,419.066620 
	C463.454590,408.848236 473.556091,398.444885 483.706421,388.091461 
	C498.872131,372.622406 514.042419,357.157623 529.140320,341.622620 
	C531.366760,339.331726 533.023376,339.288544 535.399048,341.496704 
	C562.736206,366.906677 590.164246,392.218903 617.533142,417.594788 
	C631.950195,430.962006 645.760559,445.049103 660.842834,457.613251 
	C673.676392,468.304199 670.734863,492.896149 657.689514,502.605835 
	C653.905334,505.422424 649.849670,507.695007 645.213867,508.711975 
	C638.923584,510.091827 633.690674,509.487366 628.520203,504.279541 
	C607.506348,483.113861 585.974609,462.462036 564.611755,441.643433 
	C562.704834,439.785095 560.747681,437.944550 558.622253,436.351410 
	C554.575562,433.318237 549.952515,433.729034 546.944458,437.176270 
	C544.338135,440.163147 544.427246,444.590607 547.822815,447.985748 
	C556.540588,456.702362 565.536377,465.140076 574.326965,473.784943 
	C587.278809,486.522125 600.016052,499.480530 613.106506,512.072510 
	C620.348389,519.038635 621.474854,526.568909 617.631348,535.619263 
	C611.098938,551.001404 596.145630,559.993713 579.617798,558.194397 
	C575.453125,557.741089 572.682922,555.319275 569.932556,552.579224 
	C548.681030,531.407715 527.406128,510.259674 506.127258,489.115631 
	C504.710602,487.707947 503.308105,486.250305 501.714569,485.063629 
	C498.209534,482.453522 494.601624,482.351715 491.279419,485.386688 
	C487.751740,488.609283 487.212067,492.212585 490.591766,495.957703 
	C496.835663,502.876617 503.477142,509.445923 510.105896,516.006348 
	C525.621216,531.361755 541.279114,546.573303 556.776245,561.946899 
	C565.799805,570.898560 565.857117,581.121704 557.235596,590.561401 
	C550.855591,597.546997 542.614624,600.078308 533.500183,600.623047 
	C530.913818,600.777649 530.254761,599.339722 529.595215,597.134827 
	C524.536987,580.225403 513.931519,569.196838 495.993042,566.371704 
	C492.987000,565.898193 492.949768,563.868347 492.466156,561.766907 
	C489.071503,547.015991 481.386566,535.517090 467.420258,528.768921 
	C463.458954,526.854858 459.181610,525.321167 454.947327,525.660645 
	C450.188690,526.042236 449.372894,523.622803 448.813080,520.066772 
	C446.932678,508.122131 440.357025,499.303986 430.464478,492.715454 
	C425.330078,489.295837 419.622131,487.488373 413.525848,487.482391 
	C409.823151,487.478760 408.364288,486.203339 407.539825,482.559326 
	C404.321686,468.335632 395.824402,458.128601 382.733612,451.800934 
	C379.899689,450.431183 376.866760,449.494934 373.647858,449.237640 
	C363.371155,448.416107 357.604919,443.032471 355.764587,432.663330 
	C355.677460,432.172485 355.711334,431.656982 355.597839,431.174408 
	C353.115479,420.623566 355.910126,412.670593 364.047028,404.614471 
	C390.564972,378.359802 416.096527,351.108246 441.968445,324.202606 
	C444.469727,321.601318 447.057281,319.906464 450.902527,319.459290 
	C456.952454,318.755798 461.447296,314.713501 465.595398,310.554901 
	C471.955536,304.178711 477.840881,297.358704 483.321014,290.219635 
	C485.536072,287.334076 487.886475,286.641907 491.482666,287.123810 
	C513.891418,290.126434 536.341187,292.821259 558.768005,295.691376 
	C568.994995,297.000183 579.205505,298.442200 589.412781,299.899078 
	C592.122803,300.285858 594.293579,301.660522 596.220886,303.719635 
	C626.054871,335.593842 655.880310,367.476654 685.904785,399.170898 
	C689.654114,403.128693 690.962219,406.688171 689.258301,411.993927 
	C685.698059,423.080383 682.679321,434.340759 679.439148,445.530029 
	C679.069397,446.806824 678.759094,448.118713 676.831116,449.081879 
	C661.653259,435.005981 646.310364,420.776947 630.704346,406.308411 
z"/>
<path fill="#FFFFFF" opacity="1.000000" stroke="none" 
	d="
M673.601990,673.999878 
	C673.612427,650.353394 673.594238,627.206970 673.644958,604.060608 
	C673.671204,592.098877 679.127319,586.615479 690.975647,586.611267 
	C720.116760,586.600891 749.257812,586.621704 778.398926,586.663635 
	C789.202271,586.679138 795.355347,592.868835 795.363892,603.750122 
	C795.389893,636.887756 795.391418,670.025330 795.364441,703.162964 
	C795.355652,714.010986 789.270386,720.048157 778.464539,720.407776 
	C749.667664,721.365906 720.864014,720.654907 692.064270,720.842346 
	C679.629822,720.923340 673.665710,714.791443 673.631775,702.475586 
	C673.606079,693.150391 673.610779,683.825134 673.601990,673.999878 
M760.666321,630.443054 
	C761.799377,630.174011 762.962524,629.993408 764.060303,629.620422 
	C768.520752,628.104736 770.247986,624.806946 769.772156,620.305481 
	C769.293640,615.778748 766.434509,613.345764 762.099121,613.312561 
	C743.463562,613.169861 724.826111,613.188171 706.189880,613.267639 
	C702.231079,613.284485 699.663025,615.622009 698.642700,619.389099 
	C697.598083,623.246033 699.175415,626.247498 702.319336,628.441406 
	C704.717041,630.114563 707.482178,630.604675 710.383240,630.597778 
	C726.857178,630.558533 743.331116,630.553162 760.666321,630.443054 
M701.545166,686.642639 
	C703.117065,692.779724 706.763794,695.906921 711.737183,695.382751 
	C717.068542,694.820862 719.705933,691.341492 719.728027,684.753601 
	C719.748657,678.608215 719.773193,672.462158 719.700562,666.317505 
	C719.624634,659.892395 716.291748,656.274109 710.588135,656.257263 
	C704.954285,656.240601 701.535522,659.894470 701.434204,666.349792 
	C701.332520,672.825256 701.443970,679.304138 701.545166,686.642639 
M764.026428,657.234924 
	C755.463623,654.573303 751.006104,657.649841 750.929382,666.369751 
	C750.870728,673.035522 750.814758,679.705444 750.981262,686.367859 
	C751.111877,691.595276 754.975708,695.469910 759.670715,695.488159 
	C764.940247,695.508728 768.565918,691.864929 768.639160,686.241028 
	C768.728088,679.408936 768.607971,672.574219 768.682739,665.741760 
	C768.720276,662.306030 767.547424,659.574768 764.026428,657.234924 
z"/>
<path fill="#FFFFFF" opacity="1.000000" stroke="none" 
	d="
M234.849228,247.000000 
	C234.851990,230.846054 234.836411,215.192078 234.863708,199.538177 
	C234.887497,185.892761 241.061234,179.671799 254.665085,179.654434 
	C285.473297,179.615082 316.281555,179.600861 347.089813,179.619034 
	C359.936646,179.626617 366.079102,185.633636 366.136932,198.572968 
	C366.248535,223.552200 366.245819,248.532501 366.150726,273.511841 
	C366.098236,287.308289 359.216949,293.965576 345.405853,293.945770 
	C327.087585,293.919464 308.768463,293.949799 290.451904,293.751495 
	C287.380157,293.718231 285.351257,294.701874 283.814209,297.161591 
	C281.433594,300.971283 279.233643,304.910400 276.627380,308.559113 
	C271.187531,316.174713 261.143616,315.539764 256.559113,307.397156 
	C255.335068,305.223083 254.148758,303.009277 253.178452,300.715027 
	C251.621552,297.033722 249.294159,294.503998 245.469101,292.778595 
	C237.998550,289.408844 234.966415,282.924500 234.892990,274.977631 
	C234.808365,265.819061 234.858124,256.659271 234.849228,247.000000 
M307.500000,267.760529 
	C314.999786,267.760406 322.499725,267.790924 329.999298,267.750916 
	C336.567505,267.715851 340.588470,264.403290 340.623474,259.100494 
	C340.656952,254.035034 336.309082,250.361557 329.900665,250.347015 
	C310.068054,250.302032 290.235077,250.313522 270.402557,250.390518 
	C264.383179,250.413895 259.760529,254.353638 259.588440,259.277954 
	C259.419647,264.108032 263.959595,267.727539 270.501129,267.759094 
	C282.500488,267.816986 294.500336,267.766052 307.500000,267.760529 
M272.747040,206.345169 
	C271.749207,206.352264 270.748840,206.315781 269.753967,206.373672 
	C264.197021,206.697052 260.380341,209.975021 260.156799,214.588104 
	C259.943359,218.992538 263.212494,222.458221 268.612366,223.446121 
	C269.746613,223.653625 270.930267,223.644485 272.091187,223.644989 
	C290.884247,223.653015 309.677338,223.639542 328.470398,223.652588 
	C330.652222,223.654099 332.807159,223.547134 334.814697,222.616867 
	C338.211823,221.042709 340.579620,218.622269 340.632751,214.653931 
	C340.688629,210.482117 337.907654,208.532272 334.463013,207.125565 
	C332.381012,206.275375 330.226471,206.378616 328.072357,206.376434 
	C309.944519,206.358093 291.816681,206.352859 272.747040,206.345169 
z"/>
<path fill="#FFFFFF" opacity="1.000000" stroke="none" 
	d="
M786.110840,291.900818 
	C789.304443,295.330414 792.209106,298.546112 795.227783,301.651001 
	C797.413147,303.898865 797.640198,305.565948 794.788269,307.653717 
	C767.048218,327.960754 724.726807,316.586578 710.927246,285.032379 
	C698.165649,255.851898 707.811646,224.475555 735.123474,209.602280 
	C770.891174,190.124222 815.445496,212.984009 819.482178,253.428177 
	C820.878723,267.420227 816.934143,279.602570 809.958008,291.060944 
	C807.485596,291.382660 806.733093,289.599670 805.637268,288.486328 
	C798.509460,281.244019 790.999695,274.315399 784.468994,266.564545 
	C777.491760,258.283875 768.943176,260.423065 759.212219,260.687317 
	C767.586548,272.470581 777.207336,281.652435 786.110840,291.900818 
z"/>
<path fill="#FFFFFF" opacity="1.000000" stroke="none" 
	d="
M333.490601,684.509583 
	C312.827148,702.170044 289.756927,706.984192 265.411682,695.614197 
	C240.738266,684.091003 228.306335,663.434753 228.786148,635.883118 
	C229.258453,608.762878 251.061356,584.746216 279.115631,579.830566 
	C311.523804,574.151978 343.660828,593.452332 351.820557,624.899109 
	C357.766022,647.812378 351.242371,667.969299 333.490601,684.509583 
M271.389832,629.245422 
	C277.068909,619.624817 287.701782,615.477051 297.914429,618.898682 
	C308.577942,622.471375 314.757629,632.044739 313.337006,642.790833 
	C312.018951,652.761169 302.821106,660.636108 291.690948,661.512268 
	C286.485779,661.921997 281.998444,660.826965 277.775940,657.456909 
	C273.661102,654.172791 269.036438,654.818176 266.131134,658.229614 
	C263.394806,661.442627 263.716278,665.631897 267.097473,669.521667 
	C269.649597,672.457703 272.791992,674.605469 276.388489,676.090149 
	C298.781647,685.334351 326.530243,669.199585 329.630310,645.130737 
	C331.793610,628.334961 322.081177,611.743225 305.880676,604.559448 
	C290.969574,597.947510 271.940002,602.247559 261.289917,614.762878 
	C257.031097,619.767639 253.865326,625.449707 252.524094,631.935486 
	C251.307846,637.817139 254.539001,642.693970 259.886475,643.562073 
	C265.419189,644.460205 269.147400,641.182190 269.970734,634.811279 
	C270.182404,633.173279 270.683136,631.572693 271.389832,629.245422 
z"/>
<path fill="#FFFFFF" opacity="1.000000" stroke="none" 
	d="
M729.647827,395.016083 
	C729.653381,382.077148 729.653870,382.024200 742.004944,382.136322 
	C752.660339,382.233002 763.315369,382.427307 773.968567,382.669617 
	C776.892334,382.736084 778.393555,382.029236 778.856262,378.646332 
	C779.909912,370.942566 786.550659,368.392944 792.824890,373.296082 
	C800.431519,379.240540 807.758545,385.544830 815.165100,391.742889 
	C823.849670,399.010437 832.398376,406.443848 841.195129,413.572052 
	C844.591370,416.324066 845.055664,418.312531 841.536194,421.367737 
	C825.192261,435.555634 809.052979,449.979462 792.700439,464.157379 
	C786.798096,469.274811 782.883972,468.539459 778.760193,461.910248 
	C777.372986,459.680237 775.408752,460.027374 773.508423,460.019226 
	C761.016541,459.965698 748.519409,459.789093 736.034607,460.091400 
	C730.938660,460.214783 729.488464,458.481873 729.554626,453.475037 
	C729.809753,434.157318 729.651917,414.834106 729.647827,395.016083 
z"/>
<path fill="#FFFFFF" opacity="1.000000" stroke="none" 
	d="
M296.202087,432.138916 
	C303.117737,420.329376 302.767303,409.428436 293.708221,399.200836 
	C292.862274,398.245819 291.925629,396.923737 291.904999,395.756592 
	C291.752808,387.146790 291.822662,378.533051 291.822662,370.019928 
	C294.963562,369.112671 296.862518,370.783905 298.810791,371.853455 
	C316.472961,381.549713 327.264679,401.584656 325.945374,419.656464 
	C324.018372,446.052521 304.623779,462.213409 288.252289,467.113037 
	C254.471893,477.222717 222.081345,455.254028 218.911636,420.206940 
	C216.313324,391.477722 243.600357,363.916321 272.713409,365.793365 
	C275.638519,365.981934 277.422577,366.765564 277.357300,370.146515 
	C277.229584,376.761230 277.319763,383.380188 277.319763,389.571411 
	C275.146881,391.127838 273.452576,390.387665 271.853577,390.353333 
	C257.019714,390.035248 243.797028,401.646210 243.502289,416.225983 
	C243.177719,432.280273 255.705627,443.911499 269.237183,444.923523 
	C280.604431,445.773651 289.240295,441.231628 296.202087,432.138916 
z"/>
<path fill="#FFFFFF" opacity="1.000000" stroke="none" 
	d="
M565.126221,200.921432 
	C556.471985,195.264130 548.161194,189.738846 539.741211,184.385254 
	C536.665894,182.429916 534.988403,180.030594 535.004700,176.269424 
	C535.082397,158.303833 535.032288,140.337723 535.056702,122.371826 
	C535.060425,119.635468 535.314148,117.652283 539.291992,118.326492 
	C579.165344,125.084602 604.009766,166.528870 590.889893,204.675095 
	C590.349915,206.245163 589.658142,207.762634 589.053345,209.310928 
	C587.585571,213.068619 585.493713,214.047729 581.850281,211.553650 
	C576.501587,207.892227 570.912842,204.581543 565.126221,200.921432 
z"/>
<path fill="#FFFFFF" opacity="1.000000" stroke="none" 
	d="
M507.037598,740.160400 
	C493.345428,731.830994 486.503235,718.285217 488.945282,704.839539 
	C491.494446,690.803955 501.963287,680.290710 516.419434,677.248657 
	C534.186035,673.509949 552.876831,685.951843 556.115356,703.673035 
	C559.594727,722.712097 547.326965,740.325928 528.669983,743.426636 
	C521.154602,744.675659 514.130310,743.709167 507.037598,740.160400 
z"/>
<path fill="#FFFFFF" opacity="1.000000" stroke="none" 
	d="
M665.637512,351.358673 
	C649.089539,333.663788 632.786438,316.224487 616.483276,298.785187 
	C616.800110,298.266449 617.116943,297.747711 617.433716,297.229004 
	C624.744934,298.133759 632.059814,299.009369 639.366577,299.949066 
	C656.686462,302.176544 673.996521,304.481659 691.322937,306.656860 
	C698.258362,307.527588 698.280884,307.409668 698.286499,314.573914 
	C698.303101,335.739471 698.313110,356.905060 698.325500,378.070618 
	C698.326477,379.710785 698.325623,381.350952 697.699158,383.377228 
	C686.014404,373.740143 676.417053,362.199493 665.637512,351.358673 
z"/>
<path fill="#FFFFFF" opacity="1.000000" stroke="none" 
	d="
M476.054199,196.845764 
	C489.284576,193.962509 502.143555,191.325089 514.896912,188.249710 
	C518.366516,187.413025 519.724731,188.301666 520.706726,191.427780 
	C526.183350,208.862869 531.698669,226.286560 537.355164,243.663849 
	C538.622009,247.555786 536.629395,248.325104 533.581299,248.694412 
	C506.000000,252.036407 484.056274,242.296432 467.553528,220.119659 
	C463.470886,214.633270 460.626129,208.488052 458.550446,201.479599 
	C464.312927,199.024612 470.158936,198.592834 476.054199,196.845764 
z"/>
<path fill="#FFFFFF" opacity="1.000000" stroke="none" 
	d="
M478.968292,131.907883 
	C489.865753,123.676323 501.761566,118.999611 515.011414,117.616821 
	C519.185974,117.181160 520.471008,118.586792 520.397949,122.795509 
	C520.152466,136.946838 520.226074,151.105087 520.319153,165.259766 
	C520.339233,168.304611 519.691956,170.325150 516.355164,171.053436 
	C497.666504,175.132278 479.009705,179.357071 460.318542,183.424194 
	C455.424408,184.489151 454.761749,183.680862 455.082794,178.809326 
	C456.329773,159.888077 463.943237,144.210022 478.968292,131.907883 
z"/>
<path fill="#FFFFFF" opacity="1.000000" stroke="none" 
	d="
M323.731415,363.256897 
	C321.576233,361.211853 319.677643,359.413177 316.817657,356.703674 
	C350.141754,345.793701 382.811615,336.540436 415.197266,325.110565 
	C413.771240,329.850891 350.893463,394.649109 345.618225,396.954346 
	C341.175598,384.040344 334.334839,372.600983 323.731415,363.256897 
z"/>
<path fill="#FFFFFF" opacity="1.000000" stroke="none" 
	d="
M288.946869,489.878510 
	C293.861481,487.773254 298.420563,485.810089 303.375946,483.676300 
	C305.957916,489.171844 305.995575,494.880402 306.946320,500.295074 
	C309.620972,515.527832 312.588318,530.669434 317.574402,545.343445 
	C318.270813,547.392944 318.725159,549.205566 316.420746,550.526611 
	C310.144531,554.124634 304.271698,558.602112 296.112305,555.538391 
	C293.390076,554.516296 291.881653,553.275391 291.059631,550.783264 
	C285.310364,533.352844 282.111542,515.386902 279.821838,497.229248 
	C279.560913,495.160248 280.194153,493.656403 282.184723,492.811615 
	C284.328888,491.901611 286.456543,490.952606 288.946869,489.878510 
z"/>
<path fill="#FFFFFF" opacity="1.000000" stroke="none" 
	d="
M641.082703,200.822357 
	C652.767334,206.631393 663.367676,213.468170 673.600220,220.933197 
	C676.656677,223.163055 677.006104,224.858322 674.153748,227.530640 
	C669.438171,231.948547 665.047668,236.703110 660.852295,242.317047 
	C658.171448,240.609436 655.704041,239.034744 653.233643,237.464798 
	C641.431458,229.964355 629.314148,223.018860 616.442139,217.521820 
	C612.584290,215.874329 611.433350,213.739090 612.959412,209.839691 
	C615.422424,203.546234 614.507080,196.827301 614.594971,189.579224 
	C624.231750,192.385284 632.459473,196.597473 641.082703,200.822357 
z"/>
<path fill="#FFFFFF" opacity="1.000000" stroke="none" 
	d="
M381.731506,681.308594 
	C369.592651,673.296448 369.653107,673.311707 373.161011,659.408997 
	C374.242004,655.124634 374.894562,650.732178 375.907715,645.548035 
	C390.987762,657.348511 406.594940,666.997986 423.143890,676.377808 
	C418.669098,682.987976 415.225220,689.588928 412.251923,696.432678 
	C411.101410,699.080872 409.257050,697.761047 407.682129,696.938843 
	C398.821960,692.313538 390.290131,687.136841 381.731506,681.308594 
z"/>
<path fill="#FFFFFF" opacity="1.000000" stroke="none" 
	d="
M437.094360,214.749283 
	C425.366516,220.872192 413.100983,225.223419 401.679779,231.414902 
	C398.108093,233.351151 394.765656,235.883713 389.988159,237.000092 
	C389.951294,228.492416 388.809967,220.662216 387.031891,212.922638 
	C386.736847,211.638489 387.500092,210.641006 388.565369,210.021271 
	C402.120178,202.135452 416.631317,196.528595 432.192749,191.160431 
	C431.800690,199.913895 434.157074,207.264481 437.094360,214.749283 
z"/>
<path fill="#FFFFFF" opacity="1.000000" stroke="none" 
	d="
M768.424438,505.290680 
	C767.216797,513.126892 765.446838,520.384521 763.363525,527.583740 
	C762.596069,530.235962 761.282471,531.169250 758.658264,530.396057 
	C752.596436,528.609863 746.517944,526.880371 740.460144,525.080933 
	C738.113525,524.383850 737.464844,522.863403 738.138977,520.462952 
	C741.514893,508.440460 743.835205,496.217560 744.811157,483.754852 
	C745.034729,480.899292 746.108154,479.536804 749.331116,480.425476 
	C755.258362,482.059814 761.262939,483.416199 767.244507,484.849670 
	C770.063232,485.525146 771.518127,486.720703 770.779968,490.091644 
	C769.716187,494.949554 769.219971,499.931763 768.424438,505.290680 
z"/>
<path fill="#FFFFFF" opacity="1.000000" stroke="none" 
	d="
M429.688660,707.433716 
	C425.073578,706.145630 424.119080,704.090149 426.717072,700.141113 
	C430.258545,694.758057 433.001709,688.887756 435.723145,682.539185 
	C447.919037,687.871887 460.197174,691.325989 472.630249,694.260376 
	C475.201782,694.867310 475.362976,696.745728 475.346619,698.857361 
	C475.302765,704.517151 475.201019,710.180054 475.337555,715.836487 
	C475.434784,719.863953 473.723114,720.527771 470.065033,719.793884 
	C456.312408,717.034607 443.047607,712.756958 429.688660,707.433716 
z"/>
<path fill="#FFFFFF" opacity="1.000000" stroke="none" 
	d="
M607.080505,684.906250 
	C610.261414,683.358337 611.991821,683.728943 612.780945,687.232117 
	C613.990967,692.604065 616.060120,697.698669 619.243286,702.250488 
	C620.963989,704.711060 620.214111,706.208923 617.626404,707.187195 
	C605.188171,711.889587 592.650513,716.270874 579.589417,718.959290 
	C576.912109,719.510315 574.906250,719.395020 575.452026,715.663452 
	C576.236633,710.298645 575.310974,705.016663 573.699341,699.936707 
	C572.453552,696.009583 573.372925,694.417480 577.540771,693.492676 
	C587.424194,691.299683 597.207764,688.627808 607.080505,684.906250 
z"/>
<path fill="#FFFFFF" opacity="1.000000" stroke="none" 
	d="
M455.413879,581.683350 
	C444.882324,579.630188 436.514923,568.084656 437.833405,557.883240 
	C439.026550,548.651550 448.225220,542.791931 458.004364,545.034302 
	C470.684906,547.941895 477.009705,564.428772 469.480347,575.073975 
	C466.168213,579.756775 461.650757,582.164734 455.413879,581.683350 
z"/>
<path fill="#FFFFFF" opacity="1.000000" stroke="none" 
	d="
M354.015198,478.569244 
	C356.884277,470.226044 363.667206,465.796600 371.306885,466.930817 
	C380.932983,468.359924 387.958557,476.083344 388.317413,485.630920 
	C388.654236,494.592682 385.112335,500.873840 378.305420,503.386078 
	C371.750793,505.805206 364.165070,503.255707 359.470825,496.707855 
	C355.708221,491.459442 353.458252,485.608917 354.015198,478.569244 
z"/>
<path fill="#FFFFFF" opacity="1.000000" stroke="none" 
	d="
M412.634094,542.884827 
	C404.493927,540.460938 400.119385,534.893738 397.652435,527.555664 
	C394.853180,519.229126 396.963287,512.185120 403.352142,508.178955 
	C409.626801,504.244324 418.327209,505.250549 424.191162,510.589081 
	C430.867950,516.667664 432.561951,528.185242 427.758087,535.822021 
	C424.371887,541.205261 419.597260,544.016785 412.634094,542.884827 
z"/>
<path fill="#FFFFFF" opacity="1.000000" stroke="none" 
	d="
M489.078674,585.708618 
	C498.007996,583.906921 505.129028,587.338928 509.327057,595.188171 
	C513.545532,603.075684 512.659912,612.817688 507.218262,618.384277 
	C502.732819,622.972717 494.520416,623.871460 488.839020,619.866516 
	C481.719055,614.847412 478.095947,607.644165 478.347015,598.968262 
	C478.538879,592.338501 482.320038,587.898621 489.078674,585.708618 
z"/>
<path fill="#FFFFFF" opacity="1.000000" stroke="none" 
	d="
M754.763977,544.072998 
	C756.462463,544.810730 757.411194,545.647827 757.010376,547.275452 
	C756.852112,547.918030 756.564331,548.527527 756.365967,549.161560 
	C751.270569,565.453125 751.270508,565.507080 734.114441,565.272705 
	C730.046631,565.217102 725.867371,565.876465 721.103210,564.058167 
	C725.388367,555.921814 728.755859,547.691711 732.213806,539.500732 
	C733.103577,537.393127 735.164795,538.473267 736.658569,538.878052 
	C742.590088,540.485718 748.484985,542.228210 754.763977,544.072998 
z"/>
<path fill="#FFFFFF" opacity="1.000000" stroke="none" 
	d="
M643.164429,667.140015 
	C645.794250,665.814331 647.672241,663.692688 651.259277,663.638855 
	C651.259277,672.483704 651.271240,681.206299 651.245911,689.928711 
	C651.242249,691.192566 650.522400,692.168579 649.433105,692.719849 
	C644.292603,695.321289 639.124939,697.868896 633.388611,700.723511 
	C630.825867,692.499084 627.643127,685.286621 623.570374,677.828918 
	C630.175842,674.234558 636.515930,670.784546 643.164429,667.140015 
z"/>
<path fill="#FFFFFF" opacity="1.000000" stroke="none" 
	d="
M680.346558,242.353577 
	C681.815430,241.339874 682.471191,239.713715 684.159241,239.706314 
	C684.159241,246.548965 684.159241,253.322845 684.159241,261.422455 
	C679.022339,258.188660 676.516724,254.313324 673.670593,250.859177 
	C672.823914,249.831558 673.908264,248.670303 674.741394,247.835205 
	C676.505371,246.067032 678.304565,244.334091 680.346558,242.353577 
z"/>
</svg>