<svg version="1.1" id="_x32_" xmlns="http://www.w3.org/2000/svg" xmlns:xlink="http://www.w3.org/1999/xlink" x="0px" y="0px" viewBox="0 0 512 512" style="width: 256px; height: 256px; opacity: 1;" xml:space="preserve">
<style type="text/css">
	.st0{fill:#4B4B4B;}
</style>
<g>
	<path class="st0" d="M423.59,189.415l28.358,26.933l22.622-23.876L304.908,31.314L152.116,192.472l25.147,23.876l25.526-26.918
		l5.679,107.742h-19.379l-31.487,49.491l31.487,13.498l-62.981,103.47L148.6,378.15l-34.656-11.656l30.16-69.321H0v183.514h506.699
		V297.172h-77.43L423.59,189.415z M291.409,297.172l-2.486-47.101h54.921l2.486,47.101H291.409z" style="fill: #FFFFFF"></path>
	<path class="st0" d="M140.748,242.316l9.573-13.403c-7.497-5.373-12.083-10.916-14.906-16.394
		c-2.808-5.479-3.91-10.998-3.918-16.548c-0.081-12.316,5.928-24.866,10.739-31.986l-13.708-9.139v-0.008
		c-5.905,8.938-13.427,23.732-13.507,41.132c-0.008,7.779,1.617,16.073,5.743,24.077
		C124.868,228.061,131.425,235.664,140.748,242.316z" style="fill: #FFFFFF"></path>
	<path class="st0" d="M491.1,174.138c3.186,5.518,4.416,11.496,4.425,17.569c0.032,9.139-2.976,18.342-5.679,24.102l14.946,6.95
		c3.411-7.401,7.176-18.47,7.208-31.052c0-8.302-1.737-17.344-6.637-25.815c-4.874-8.479-12.863-16.138-24.302-21.881l-7.417,14.722
		C482.677,163.302,487.891,168.62,491.1,174.138z" style="fill: #FFFFFF"></path>
</g>
</svg>
