<svg width="33" height="33" viewBox="0 0 33 33" fill="none" xmlns="http://www.w3.org/2000/svg">
<g clip-path="url(#clip0_8_14)">
<path d="M24.36 14.86C24.36 15.1567 24.272 15.4467 24.1072 15.6934C23.9424 15.94 23.7081 16.1323 23.434 16.2458C23.1599 16.3594 22.8583 16.3891 22.5674 16.3312C22.2764 16.2733 22.0091 16.1304 21.7993 15.9207C21.5895 15.7109 21.4467 15.4436 21.3888 15.1526C21.3309 14.8617 21.3606 14.5601 21.4742 14.286C21.5877 14.0119 21.78 13.7776 22.0266 13.6128C22.2733 13.448 22.5633 13.36 22.86 13.36C23.2578 13.36 23.6393 13.518 23.9206 13.7993C24.2019 14.0806 24.36 14.4622 24.36 14.86ZM19.36 8.36H14.36C14.0948 8.36 13.8404 8.46536 13.6529 8.65289C13.4653 8.84043 13.36 9.09478 13.36 9.36C13.36 9.62522 13.4653 9.87957 13.6529 10.0671C13.8404 10.2546 14.0948 10.36 14.36 10.36H19.36C19.6252 10.36 19.8796 10.2546 20.0671 10.0671C20.2546 9.87957 20.36 9.62522 20.36 9.36C20.36 9.09478 20.2546 8.84043 20.0671 8.65289C19.8796 8.46536 19.6252 8.36 19.36 8.36ZM31.36 14.36V18.36C31.36 19.1557 31.0439 19.9187 30.4813 20.4813C29.9187 21.0439 29.1556 21.36 28.36 21.36H28.065L26.0387 27.0325C25.9 27.421 25.6445 27.7572 25.3073 27.9948C24.97 28.2325 24.5676 28.36 24.155 28.36H22.565C22.1524 28.36 21.7499 28.2325 21.4127 27.9948C21.0755 27.7572 20.82 27.421 20.6812 27.0325L20.4412 26.36H13.2787L13.0387 27.0325C12.9 27.421 12.6445 27.7572 12.3073 27.9948C11.97 28.2325 11.5676 28.36 11.155 28.36H9.56499C9.15242 28.36 8.74993 28.2325 8.41269 27.9948C8.07545 27.7572 7.81996 27.421 7.68124 27.0325L6.10999 22.6375C4.61521 20.9457 3.67925 18.8337 3.42999 16.59C3.10726 16.7595 2.83701 17.014 2.64842 17.3259C2.45984 17.6379 2.3601 17.9955 2.35999 18.36C2.35999 18.6252 2.25463 18.8796 2.06709 19.0671C1.87956 19.2546 1.6252 19.36 1.35999 19.36C1.09477 19.36 0.840415 19.2546 0.652879 19.0671C0.465342 18.8796 0.359985 18.6252 0.359985 18.36C0.361513 17.4682 0.661013 16.6025 1.2109 15.9004C1.76079 15.1983 2.52953 14.7001 3.39499 14.485C3.61838 11.7292 4.87001 9.15812 6.90134 7.28241C8.93266 5.4067 11.5951 4.36351 14.36 4.36H27.36C27.6252 4.36 27.8796 4.46536 28.0671 4.65289C28.2546 4.84043 28.36 5.09478 28.36 5.36C28.36 5.62522 28.2546 5.87957 28.0671 6.06711C27.8796 6.25464 27.6252 6.36 27.36 6.36H24.6862C26.3458 7.52437 27.651 9.12504 28.4575 10.985C28.5112 11.11 28.5637 11.235 28.6137 11.36C29.3646 11.4237 30.064 11.7677 30.5728 12.3236C31.0817 12.8794 31.3627 13.6064 31.36 14.36ZM29.36 14.36C29.36 14.0948 29.2546 13.8404 29.0671 13.6529C28.8796 13.4654 28.6252 13.36 28.36 13.36H27.9025C27.6895 13.3602 27.482 13.2924 27.3102 13.1665C27.1385 13.0406 27.0114 12.8632 26.9475 12.66C26.3746 10.8317 25.2323 9.23428 23.6875 8.10093C22.1426 6.96759 20.276 6.35761 18.36 6.36H14.36C12.6134 6.35991 10.9045 6.86804 9.44169 7.82243C7.9789 8.77682 6.82541 10.1362 6.12189 11.7349C5.41838 13.3335 5.19523 15.1023 5.47966 16.8256C5.76409 18.5489 6.54381 20.1522 7.72374 21.44C7.81396 21.5381 7.88366 21.6533 7.92874 21.7788L9.56499 26.36H11.155L11.6325 25.0238C11.7018 24.8296 11.8295 24.6616 11.998 24.5428C12.1665 24.4239 12.3676 24.3601 12.5737 24.36H21.1462C21.3524 24.3601 21.5535 24.4239 21.722 24.5428C21.8905 24.6616 22.0182 24.8296 22.0875 25.0238L22.565 26.36H24.155L26.4187 20.0238C26.4881 19.8296 26.6157 19.6616 26.7842 19.5428C26.9527 19.4239 27.1538 19.3601 27.36 19.36H28.36C28.6252 19.36 28.8796 19.2546 29.0671 19.0671C29.2546 18.8796 29.36 18.6252 29.36 18.36V14.36Z" fill="white"/>
</g>
<defs>
<clipPath id="clip0_8_14">
<rect width="32" height="32" fill="white" transform="translate(0.359985 0.360001)"/>
</clipPath>
</defs>
</svg>
