<svg width="43" height="44" viewBox="0 0 43 44" fill="none" xmlns="http://www.w3.org/2000/svg">
<path d="M35.6 5.84H21.36C20.381 5.84 19.58 6.641 19.58 7.62V10.4858C19.58 10.4858 19.58 10.4858 19.5978 10.5036L28.4978 18.5136C29.6192 19.5104 30.26 20.97 30.26 22.483V23.64H33.82V27.2H30.26V30.76H33.82V34.32H30.26V37.88H35.6C36.579 37.88 37.38 37.079 37.38 36.1V7.62C37.38 6.641 36.579 5.84 35.6 5.84ZM26.7 12.96H23.14V9.4H26.7V12.96ZM33.82 20.08H30.26V16.52H33.82V20.08ZM33.82 12.96H30.26V9.4H33.82V12.96Z" fill="white"/>
<path d="M26.7 36.1V22.483C26.7 21.9846 26.4864 21.504 26.1126 21.1658L17.2126 13.1558C16.8744 12.8354 16.4472 12.693 16.02 12.693C15.5928 12.693 15.1656 12.8532 14.8274 13.1558L5.9274 21.1658C5.5536 21.4862 5.34 21.9668 5.34 22.483V36.1C5.34 37.079 6.141 37.88 7.12 37.88H10.68C11.659 37.88 12.46 37.079 12.46 36.1V28.98H19.58V36.1C19.58 37.079 20.381 37.88 21.36 37.88H24.92C25.899 37.88 26.7 37.079 26.7 36.1Z" fill="white"/>
</svg>
